<svg id="Locomate" xmlns="http://www.w3.org/2000/svg" xmlns:xlink="http://www.w3.org/1999/xlink" width="196.943" height="32.21" viewBox="0 0 196.943 32.21">
  <defs>
    <linearGradient id="linear-gradient" x1="0.001" y1="0.501" x2="1.001" y2="0.501" gradientUnits="objectBoundingBox">
      <stop offset="0" stop-color="#3cf"/>
      <stop offset="1" stop-color="#9f3"/>
    </linearGradient>
    <linearGradient id="linear-gradient-2" x1="0" y1="0.5" x2="1" y2="0.5" xlink:href="#linear-gradient"/>
  </defs>
  <g id="Group_5449" data-name="Group 5449">
    <path id="Path_2115" data-name="Path 2115" d="M11.81,25.83H2.07V5.22c0-.53-.34-.8-1.05-.8S0,4.69,0,5.22V27.83H11.81c.47,0,.7-.32.7-.96,0-.69-.23-1.04-.7-1.04Z" fill="#1b194e"/>
    <path id="Path_2116" data-name="Path 2116" d="M30.99,7.89a5.761,5.761,0,0,0-1.1-1.76,5.225,5.225,0,0,0-1.68-1.19,4.893,4.893,0,0,0-2.08-.45H20.77a4.566,4.566,0,0,0-2.02.45,5.8,5.8,0,0,0-1.66,1.19,5.479,5.479,0,0,0-1.13,1.76,5.6,5.6,0,0,0-.41,2.15V22.51a5.933,5.933,0,0,0,.39,2.17,5.372,5.372,0,0,0,2.82,2.93,5.446,5.446,0,0,0,2.14.42h5.13a5.411,5.411,0,0,0,2.14-.42,5.16,5.16,0,0,0,1.7-1.19,5.306,5.306,0,0,0,1.12-1.74,5.7,5.7,0,0,0,.39-2.17V10.04A5.981,5.981,0,0,0,30.99,7.89ZM29.48,22.71a3.317,3.317,0,0,1-.25,1.28,3.139,3.139,0,0,1-.67,1.06,3.366,3.366,0,0,1-1.02.72,2.97,2.97,0,0,1-1.26.27H20.64a3.12,3.12,0,0,1-1.3-.27,2.94,2.94,0,0,1-1-.73,3.479,3.479,0,0,1-.65-1.06,3.2,3.2,0,0,1-.25-1.27V9.81a3.632,3.632,0,0,1,.23-1.28,3.023,3.023,0,0,1,.64-1.07,3.42,3.42,0,0,1,.97-.71,2.774,2.774,0,0,1,1.23-.27h5.9a2.738,2.738,0,0,1,1.2.27,3.286,3.286,0,0,1,.97.71,3.2,3.2,0,0,1,.65,1.07,3.281,3.281,0,0,1,.25,1.28v12.9Z" fill="#1b194e"/>
    <path id="Path_2117" data-name="Path 2117" d="M50.3,26H41.4a2.558,2.558,0,0,1-1.13-.25,2.935,2.935,0,0,1-.91-.68,3.418,3.418,0,0,1-.6-1.04,3.536,3.536,0,0,1-.23-1.27V9.81a3.583,3.583,0,0,1,.77-2.34,2.572,2.572,0,0,1,2.1-.93h8.93c.48,0,.73-.33.73-1a1.325,1.325,0,0,0-.17-.74.817.817,0,0,0-.43-.32H41.59a4.839,4.839,0,0,0-2.02.42,4.708,4.708,0,0,0-1.59,1.15,5.382,5.382,0,0,0-1.05,1.73,5.893,5.893,0,0,0-.38,2.17V22.58a5.708,5.708,0,0,0,1.43,3.87,4.6,4.6,0,0,0,1.59,1.16,4.839,4.839,0,0,0,2.02.42h8.74L50.29,28c.49,0,.74-.33.74-.96,0-.69-.25-1.04-.74-1.04Z" fill="#1b194e"/>
    <path id="Path_2118" data-name="Path 2118" d="M71.69,7.89a5.577,5.577,0,0,0-1.1-1.76,5.293,5.293,0,0,0-1.67-1.19,4.938,4.938,0,0,0-2.09-.45H61.47a4.6,4.6,0,0,0-2.02.45,5.8,5.8,0,0,0-1.66,1.19,5.653,5.653,0,0,0-1.13,1.76,5.6,5.6,0,0,0-.41,2.15V22.51a5.737,5.737,0,0,0,.4,2.17,5.339,5.339,0,0,0,1.11,1.74,5.638,5.638,0,0,0,1.71,1.19,5.4,5.4,0,0,0,2.13.42h5.13a5.411,5.411,0,0,0,2.14-.42,5.16,5.16,0,0,0,1.7-1.19,5.306,5.306,0,0,0,1.12-1.74,5.9,5.9,0,0,0,.4-2.17V10.04a5.989,5.989,0,0,0-.4-2.15ZM70.18,22.71a3.5,3.5,0,0,1-.24,1.28,3.163,3.163,0,0,1-.68,1.06,3.321,3.321,0,0,1-1.01.72,3.015,3.015,0,0,1-1.27.27H61.34a3.107,3.107,0,0,1-1.29-.27,2.94,2.94,0,0,1-1-.73,3.32,3.32,0,0,1-.66-1.06,3.375,3.375,0,0,1-.24-1.27V9.81a3.626,3.626,0,0,1,.22-1.28,3.177,3.177,0,0,1,.64-1.07,3.42,3.42,0,0,1,.97-.71,2.805,2.805,0,0,1,1.23-.27h5.9a2.706,2.706,0,0,1,1.2.27,3.286,3.286,0,0,1,.97.71,3.391,3.391,0,0,1,.66,1.07,3.465,3.465,0,0,1,.24,1.28Z" fill="#1b194e"/>
    <path id="Path_2119" data-name="Path 2119" d="M94.44,4.69c-.13-.18-.41-.27-.86-.27h-.4a.551.551,0,0,0-.27.12,1.316,1.316,0,0,0-.29.29c-.11.13-.24.33-.41.57l-5.97,8.65h-.22L80.05,5.4c-.17-.24-.3-.43-.41-.57a1.955,1.955,0,0,0-.29-.29.565.565,0,0,0-.29-.12h-.41a.991.991,0,0,0-.83.27,1.051,1.051,0,0,0-.2.63V27.27c0,.53.34.8,1.02.8.64,0,.95-.27.95-.8v-17l-.25-3.33L80.65,9.6l4.56,6.32a1.219,1.219,0,0,0,.95.57,1.19,1.19,0,0,0,.86-.57L91.58,9.6l1.31-2.66-.29,3.33v17c0,.53.35.8,1.05.8.64,0,.96-.27.96-.8V5.32a1.051,1.051,0,0,0-.2-.63Z" fill="#1b194e"/>
    <path id="Path_2120" data-name="Path 2120" d="M134.69,4.69H119.96c-.46,0-.7.34-.7,1.03,0,.65.24.96.7.96h6.28V27.27a.73.73,0,0,0,.29.57,1.3,1.3,0,0,0,.83.23,1.158,1.158,0,0,0,.75-.23.719.719,0,0,0,.28-.57V6.68h6.31c.49,0,.74-.32.74-.96,0-.69-.25-1.03-.74-1.03Z" fill="#1b194e"/>
    <path id="Path_2121" data-name="Path 2121" d="M152.04,25.83H141.68V18.06h0V14.3h0V6.68h10.36c.49,0,.74-.33.74-1s-.25-.99-.74-.99H139.76V27.83h12.28c.49,0,.74-.32.74-.96,0-.69-.25-1.04-.74-1.04Zm-7.58-10.57v2.03h5.26c.48,0,.73-.35.73-1.03s-.25-1-.73-1Z" fill="#1b194e"/>
    <path id="Path_2122" data-name="Path 2122" d="M115.49,18.53v8.66a.923.923,0,0,1-.97.88h-.02a.923.923,0,0,1-.97-.88V21.65h-8.56V19.76h8.56V18.03a4.44,4.44,0,0,0-.24-1.44l-3.27-9.78a1.387,1.387,0,0,0-1.34-.89h-1.91a1.388,1.388,0,0,0-1.35.93l-3.06,9.99a4.29,4.29,0,0,0-.2,1.33v9.02a.932.932,0,0,1-.98.88h0a.932.932,0,0,1-.98-.88V18.6a9.218,9.218,0,0,1,.4-2.66l1.04-3.37,2.02-6.64a2.65,2.65,0,0,1,2.58-1.77h2.94a2.678,2.678,0,0,1,2.57,1.72l.02.05,2.22,6.64,1.03,3.06a9.315,9.315,0,0,1,.47,2.9Z" fill="#1b194e"/>
  </g>
  <rect id="Rectangle_2477" data-name="Rectangle 2477" width="1.92" height="32.21" transform="translate(162.61)" fill="#a7a9ac"/>
  <g id="Group_5453" data-name="Group 5453">
    <g id="Group_5450" data-name="Group 5450" opacity="0.4">
      <path id="Path_2123" data-name="Path 2123" d="M181.17,6.91a2.49,2.49,0,1,0-2.32-2.65,2.494,2.494,0,0,0,2.32,2.65Z" fill="url(#linear-gradient)"/>
      <path id="Path_2124" data-name="Path 2124" d="M188.71,12.63l-3.38-.85-1.53-1.76.03-.46a1.681,1.681,0,0,0-1.57-1.79l-3-.2a1.683,1.683,0,0,0-1.78,1.47l.68-.2-2.76,1.48a1.114,1.114,0,0,0-.51.56l-1.78,4.26a1.138,1.138,0,0,0,2.1.88l1.63-3.89,2.41-1.29-1.77,1.49-.25.61-.32,4.81h.02c0,.06.16,3.27.24,4.85l-2.66,5.73a1.362,1.362,0,0,0,2.47,1.15l2.8-6.04a1.285,1.285,0,0,0,.12-.64l-.24-4.87.62.04,1.51,4.49.57,6.56a1.365,1.365,0,0,0,2.72-.24l-.59-6.73a.922.922,0,0,0-.07-.32l-1.2-3.58h.04l.33-4.93.26.3a1.145,1.145,0,0,0,.58.36l3.72.94a1.139,1.139,0,1,0,.55-2.21h0Z" fill="url(#linear-gradient-2)"/>
    </g>
    <g id="Group_5451" data-name="Group 5451" opacity="0.6">
      <path id="Path_2125" data-name="Path 2125" d="M184.86,6.91a2.49,2.49,0,1,0-2.32-2.65,2.494,2.494,0,0,0,2.32,2.65Z" fill="url(#linear-gradient)"/>
      <path id="Path_2126" data-name="Path 2126" d="M192.4,12.63l-3.38-.85-1.53-1.76.03-.46a1.681,1.681,0,0,0-1.57-1.79l-3-.2a1.683,1.683,0,0,0-1.78,1.47l.68-.2-2.76,1.48a1.114,1.114,0,0,0-.51.56l-1.78,4.26a1.138,1.138,0,0,0,2.1.88l1.63-3.89,2.41-1.29-1.77,1.49-.25.61-.32,4.81h.02c0,.06.16,3.27.24,4.85l-2.66,5.73a1.362,1.362,0,0,0,2.47,1.15l2.8-6.04a1.285,1.285,0,0,0,.12-.64l-.24-4.87.62.04,1.51,4.49.57,6.56a1.365,1.365,0,0,0,2.72-.24l-.59-6.73a.922.922,0,0,0-.07-.32l-1.2-3.58h.04l.33-4.93.26.3a1.145,1.145,0,0,0,.58.36l3.72.94a1.139,1.139,0,1,0,.55-2.21h0Z" fill="url(#linear-gradient-2)"/>
    </g>
    <g id="Group_5452" data-name="Group 5452">
      <path id="Path_2127" data-name="Path 2127" d="M188.55,6.91a2.49,2.49,0,1,0-2.32-2.65,2.494,2.494,0,0,0,2.32,2.65Z" fill="url(#linear-gradient)"/>
      <path id="Path_2128" data-name="Path 2128" d="M196.09,12.63l-3.38-.85-1.53-1.76.03-.46a1.681,1.681,0,0,0-1.57-1.79l-3-.2a1.683,1.683,0,0,0-1.78,1.47l.68-.2-2.76,1.48a1.114,1.114,0,0,0-.51.56l-1.78,4.26a1.138,1.138,0,0,0,2.1.88l1.63-3.89,2.41-1.29-1.77,1.49-.25.61-.32,4.81h.02c0,.06.16,3.27.24,4.85l-2.66,5.73a1.362,1.362,0,0,0,2.47,1.15l2.8-6.04a1.285,1.285,0,0,0,.12-.64l-.24-4.87.62.04,1.51,4.49.57,6.56a1.365,1.365,0,0,0,2.72-.24l-.59-6.73a.922.922,0,0,0-.07-.32l-1.2-3.58h.04l.33-4.93.26.3a1.145,1.145,0,0,0,.58.36l3.72.94a1.139,1.139,0,1,0,.55-2.21h0Z" fill="url(#linear-gradient-2)"/>
    </g>
  </g>
</svg>
