<svg id="Delete" xmlns="http://www.w3.org/2000/svg" width="11.975" height="16" viewBox="0 0 11.975 16">
  <path id="Path_1256" data-name="Path 1256" d="M1004.073,561.072h4.861c.424,0,.544.116.514.542-.086,1.252-.182,2.5-.274,3.756q-.11,1.509-.219,3.018c-.079,1.075-.149,2.15-.245,3.223a1.4,1.4,0,0,1-1.393,1.261q-3.265.007-6.53,0a1.429,1.429,0,0,1-1.425-1.394c-.119-1.595-.228-3.19-.344-4.785-.061-.834-.13-1.667-.191-2.5q-.1-1.313-.181-2.627c-.024-.355.1-.492.462-.492Q1001.591,561.071,1004.073,561.072Zm.331,5.659q0-1.985,0-3.969a1.324,1.324,0,0,0-.015-.246.347.347,0,0,0-.671-.04.892.892,0,0,0-.028.263q0,1.563,0,3.127,0,2.409,0,4.819a.909.909,0,0,0,.021.244.325.325,0,0,0,.368.258.319.319,0,0,0,.314-.3,1.681,1.681,0,0,0,.011-.246Q1004.4,568.687,1004.4,566.731Zm-2.71,1.029h0q-.059-1.892-.117-3.785c-.014-.446-.026-.892-.043-1.338-.01-.264-.165-.42-.39-.4s-.325.174-.316.465q.092,3.006.184,6.012c.022.7.048,1.4.073,2.1a.352.352,0,0,0,.467.363.365.365,0,0,0,.238-.409C1001.754,569.764,1001.725,568.762,1001.694,567.76Zm5.449-1.456c.015-.48.042-1.371.069-2.263.014-.467.028-.933.039-1.4a.358.358,0,1,0-.712-.049c-.008.075-.007.151-.009.226-.021.81-.04,1.619-.063,2.429q-.077,2.768-.155,5.537c-.007.254.119.4.334.4s.363-.141.37-.4C1007.055,569.433,1007.093,568.075,1007.142,566.3Z" transform="translate(-998.073 -556.876)" fill="#727272"/>
  <path id="Path_1257" data-name="Path 1257" d="M987.571,461.035a5.182,5.182,0,0,1,.067-.683,1.453,1.453,0,0,1,1.433-1.134q1.72-.005,3.44,0a1.491,1.491,0,0,1,1.511,1.5c0,.1,0,.192,0,.322h.2c.46,0,.92,0,1.38,0a1.11,1.11,0,0,1,1.1,1.353.354.354,0,0,1-.323.3,1.639,1.639,0,0,1-.185.007H985.276c-.32,0-.488-.1-.511-.325a1.633,1.633,0,0,1,.011-.451,1.065,1.065,0,0,1,1.062-.883C986.413,461.032,986.989,461.035,987.571,461.035Zm5.542-.01c.077-.678-.14-.928-.791-.928h-3.069c-.612,0-.868.309-.758.928Z" transform="translate(-984.754 -459.216)" fill="#727272"/>
</svg>
