<svg id="Group_17771" data-name="Group 17771" xmlns="http://www.w3.org/2000/svg" xmlns:xlink="http://www.w3.org/1999/xlink" width="20.494" height="16.658" viewBox="0 0 20.494 16.658">
  <defs>
    <clipPath id="clip-path">
      <rect id="Rectangle_10525" data-name="Rectangle 10525" width="20.494" height="16.658" fill="#727272"/>
    </clipPath>
  </defs>
  <g id="Group_17770" data-name="Group 17770" clip-path="url(#clip-path)">
    <path id="Path_7742" data-name="Path 7742" d="M2.566,19.963H1.276v.6c.558.161.619.241.62.81,0,.6.006,1.2,0,1.8-.005.427-.185.6-.615.612C.02,23.831,0,23.813,0,22.558c0-.414,0-.828,0-1.242,0-.508.088-.61.641-.741,0-.133,0-.277,0-.42,0-.707.122-.824.844-.825h1.08c0-.246,0-.456,0-.665A1.493,1.493,0,0,1,3.65,17.152a17.648,17.648,0,0,1,7.083-.968c.173.014.346.018.57.029a4.559,4.559,0,0,0-.565,1c-.19.723-.622.9-1.3.812-.474-.058-.961,0-1.441-.014-.242-.006-.333.085-.328.328.026,1.212-.166.958.947.985.467.011.935,0,1.4.006a1.285,1.285,0,0,1,.165.039v5.711h6.466v.455q0,1.563,0,3.126c0,1.027-.25,1.342-1.249,1.579-.165,1.249-.165,1.249-1.216,1.241-.6,0-.6,0-.748-1.255H5.849c-.108.392-.106.885-.351,1.12-.208.2-.7.147-1.068.127-.886-.049-.453-.8-.616-1.232-.989-.232-1.248-.559-1.248-1.58q0-4.088,0-8.176v-.525m6.392.662a.54.54,0,0,0-.128-.037c-1.562,0-3.123,0-4.685-.007-.317,0-.328.188-.327.422,0,1.215.012,2.429,0,3.644,0,.348.1.467.458.462,1.254-.017,2.509-.007,3.764-.007h.923ZM4.765,27.666c1.194-.032.985.234,1.008-.992,0-.013.005-.032,0-.039-.094-.094-.186-.26-.287-.267-.449-.029-.9-.007-1.353-.015-.215,0-.3.071-.315.3-.062,1.015-.068,1.015.949,1.016M9.6,26.355c-.519,0-1.038.009-1.557,0-.259-.006-.392.052-.387.35,0,.281.132.328.371.326q1.577-.012,3.154,0c.242,0,.363-.054.368-.331.006-.3-.137-.352-.391-.346-.519.012-1.038,0-1.557,0M14.4,27.666c1.059,0,1.054,0,1-1.006-.012-.217-.082-.312-.305-.308-.425.009-.85.018-1.274,0-.3-.015-.382.106-.383.394,0,.922-.012.921.924.922h.04m-4.8.641c.546,0,1.091-.008,1.637,0,.256.005.311-.117.312-.342s-.071-.336-.32-.334q-1.617.013-3.233,0c-.237,0-.331.077-.333.322s.074.362.342.355c.532-.015,1.064,0,1.6,0" transform="translate(0 -14.84)" fill="#727272"/>
    <path id="Path_7743" data-name="Path 7743" d="M136.009,4.779a4.8,4.8,0,0,1,9.591.034,4.8,4.8,0,1,1-9.591-.034m1.254.01a3.541,3.541,0,1,0,3.5-3.534,3.53,3.53,0,0,0-3.5,3.534" transform="translate(-125.105 -0.001)" fill="#727272"/>
    <path id="Path_7744" data-name="Path 7744" d="M177.966,27.144c.08.263-.1.516-.424.734-.418.284-.817.6-1.218.905-.2.151-.4.153-.51-.052a.6.6,0,0,1,.015-.477,1.75,1.75,0,0,1,.424-.526,2.232,2.232,0,0,0,.656-1.722c.033-.544.082-1.089.162-1.627.019-.127.19-.232.291-.346.112.118.307.225.324.354.11.871.183,1.746.28,2.758" transform="translate(-161.679 -22.105)" fill="#727272"/>
  </g>
</svg>
