<svg id="Group_5440" data-name="Group 5440" xmlns="http://www.w3.org/2000/svg" xmlns:xlink="http://www.w3.org/1999/xlink" width="14.001" height="15.971" viewBox="0 0 14.001 15.971">
  <defs>
    <clipPath id="clip-path">
      <rect id="Rectangle_2469" data-name="Rectangle 2469" width="14.001" height="15.971" fill="#727272"/>
    </clipPath>
  </defs>
  <g id="Group_5439" data-name="Group 5439" clip-path="url(#clip-path)">
    <path id="Path_2108" data-name="Path 2108" d="M1.008,13.978a1.016,1.016,0,0,1-1-1.107C.009,9.493.018,6.115,0,2.737A1.552,1.552,0,0,1,.7,1.38,5.981,5.981,0,0,1,2.653.511,13.558,13.558,0,0,1,6,.012c.868-.019,1.739-.021,2.6.037a11.277,11.277,0,0,1,3.971.905,3.014,3.014,0,0,1,1.155.829A1.181,1.181,0,0,1,14,2.546q0,5.168,0,10.337a1.015,1.015,0,0,1-1,1.094c0,.323.013.65-.005.975a1.273,1.273,0,0,1-.122.491.93.93,0,0,1-.86.523c-.338.008-.677,0-1.015,0A1,1,0,0,1,10,14.975c0-.328,0-.655,0-.995h-6c0,.318.011.639,0,.959a1.243,1.243,0,0,1-.1.465.944.944,0,0,1-.884.561c-.338.008-.677,0-1.015,0a1,1,0,0,1-.991-1c0-.327,0-.655,0-.993M7,8.973h3.951A1,1,0,0,0,12,7.914q0-1.936,0-3.873a1,1,0,0,0-1.063-1.066H3.069A1,1,0,0,0,2.007,4.041q0,1.928,0,3.857a1,1,0,0,0,1.07,1.074H7m4.506,1.5a1,1,0,1,0,1,1,1,1,0,0,0-1-1m-9,2a1,1,0,1,0-.993-1.01,1,1,0,0,0,.993,1.01" transform="translate(0 0)" fill="#727272"/>
  </g>
</svg>
