<svg id="Group_5442" data-name="Group 5442" xmlns="http://www.w3.org/2000/svg" xmlns:xlink="http://www.w3.org/1999/xlink" width="11.201" height="15.037" viewBox="0 0 11.201 15.037">
  <defs>
    <clipPath id="clip-path">
      <rect id="Rectangle_2470" data-name="Rectangle 2470" width="11.201" height="15.037" fill="#727272"/>
    </clipPath>
  </defs>
  <g id="Group_5441" data-name="Group 5441" clip-path="url(#clip-path)">
    <path id="Path_2109" data-name="Path 2109" d="M11.2,7.525q0,3.268,0,6.536a.93.93,0,0,1-.722.951,1.048,1.048,0,0,1-.25.023q-4.633,0-9.266,0A.931.931,0,0,1,0,14.017q0-2.148,0-4.3Q0,5.383,0,1.045a.942.942,0,0,1,.675-1A1.23,1.23,0,0,1,1.007,0Q5.6,0,10.189,0A.935.935,0,0,1,11.2,1.022q0,3.251,0,6.5M5.62,3.892q1.76,0,3.521,0a.444.444,0,0,0,.5-.479c.01-.427.009-.854,0-1.28a.462.462,0,0,0-.521-.5q-3.5,0-6.991,0a.474.474,0,0,0-.532.53c0,.393,0,.786,0,1.179s.164.554.549.555H5.62m.844,2.524a.853.853,0,0,0-.856-.852.862.862,0,1,0,.856.852m2.928.019a.856.856,0,0,0-.856-.87.862.862,0,1,0,.856.87m-.847,2.06a.864.864,0,0,0-.874.854.878.878,0,0,0,.87.866.867.867,0,0,0,.852-.862.849.849,0,0,0-.847-.858M1.828,6.42a.856.856,0,1,0,.852-.855.859.859,0,0,0-.852.855M6.464,9.357a.845.845,0,0,0-.841-.862.861.861,0,0,0-.876.851.873.873,0,0,0,.864.869.861.861,0,0,0,.853-.858m2.073,2.066a.86.86,0,0,0-.866.861.872.872,0,0,0,.862.854.858.858,0,0,0,.86-.867.847.847,0,0,0-.856-.849M1.827,9.348a.856.856,0,1,0,1.713,0,.856.856,0,0,0-1.713,0m0,2.936a.856.856,0,1,0,.846-.861.853.853,0,0,0-.846.861m4.637,0a.842.842,0,0,0-.848-.858.857.857,0,1,0,.848.858" transform="translate(0.001 0)" fill="#727272"/>
  </g>
</svg>
