<svg id="Group_6010" data-name="Group 6010" xmlns="http://www.w3.org/2000/svg" width="17.068" height="15.998" viewBox="0 0 17.068 15.998">
  <path id="Path_1232" data-name="Path 1232" d="M623.457,253.432c0,.384,0,.719,0,1.053q0,4.157,0,8.314a1.8,1.8,0,0,1-1.959,1.948q-4.277.006-8.553,0-2.481,0-4.962,0a1.408,1.408,0,0,1-1.579-1.492c-.021-3.215-.01-6.43-.01-9.645a1.066,1.066,0,0,1,.034-.177Zm-7.668,3.074c0-1.185.054-1.138-1.15-1.132-1.031.006-1.031,0-1.031,1.055,0,1.125,0,1.125,1.123,1.129C615.792,257.562,615.792,257.562,615.789,256.506Zm3.188,1.052c1.08,0,1.08,0,1.08-1.078,0-1.1,0-1.1-1.1-1.1-1.083-.006-1.083-.006-1.079,1.08C617.88,257.559,617.88,257.559,618.977,257.559Zm-4.293,4.775c1.129.005,1.114.084,1.107-1.079-.007-1.1,0-1.1-1.106-1.1-1.073,0-1.073,0-1.074,1.092S613.609,262.334,614.683,262.334Zm5.372-1.052c0-1.126,0-1.126-1.123-1.126h-.04c-1.016,0-1.011,0-1.017,1.03-.007,1.191-.055,1.157,1.126,1.148C620.056,262.326,620.056,262.333,620.055,261.282Zm-9.558-5.906c-1.083,0-1.083,0-1.085,1.086,0,1.1,0,1.1,1.113,1.1,1.061-.006,1.061-.006,1.067-1.078C611.6,255.374,611.6,255.374,610.5,255.376Zm1.095,5.872c0-1.092,0-1.092-1.077-1.092h-.04c-1.063,0-1.063,0-1.063,1.068,0,1.11,0,1.11,1.094,1.11S611.592,262.334,611.592,261.248Z" transform="translate(-606.39 -248.752)" fill="#333"/>
  <path id="Path_1233" data-name="Path 1233" d="M606.578,198.971c0-.789-.057-1.559.016-2.315a1.334,1.334,0,0,1,1.4-1.191c.444-.007.888,0,1.332,0a1.919,1.919,0,0,1,.2.031v1.015c0,.175,0,.35,0,.525a.486.486,0,0,0,.517.542.5.5,0,0,0,.535-.535c.02-.362.006-.726.007-1.09,0-.146,0-.291,0-.465h8.5c0,.476,0,.942,0,1.408s.2.7.548.686c.333-.011.5-.235.5-.681s0-.912,0-1.435a6.177,6.177,0,0,1,2.392.2,1.579,1.579,0,0,1,1.017,1.55c-.009.576,0,1.152,0,1.757Z" transform="translate(-606.543 -195.449)" fill="#333"/>
</svg>
