<svg xmlns="http://www.w3.org/2000/svg" width="14.363" height="14.366" viewBox="0 0 14.363 14.366">
  <g id="Group_5430" data-name="Group 5430" transform="translate(-373.452 -129.41)">
    <path id="Path_2104" data-name="Path 2104" d="M447.564,136.6v6.444c0,.576-.159.735-.737.735-.9,0-1.806,0-2.709,0-.476,0-.657-.185-.657-.667q0-6.517,0-13.034c0-.479.182-.66.663-.661q1.391,0,2.783,0c.475,0,.657.185.657.667q0,3.259,0,6.517Z" transform="translate(-64.877)" fill="#727272"/>
    <path id="Path_2105" data-name="Path 2105" d="M517.573,190.563q0,2.214,0,4.429c0,.529-.169.7-.7.7q-1.373,0-2.745,0c-.477,0-.656-.183-.656-.667q0-4.465,0-8.931c0-.484.175-.657.662-.659q1.391,0,2.782,0c.48,0,.657.181.658.665Q517.576,188.33,517.573,190.563Z" transform="translate(-129.759 -51.916)" fill="#727272"/>
    <path id="Path_2106" data-name="Path 2106" d="M377.556,244.482c0,.805,0,1.61,0,2.415,0,.482-.18.661-.661.663q-1.409,0-2.818,0c-.437,0-.621-.186-.622-.624q-.005-2.452,0-4.9c0-.434.19-.624.622-.626q1.427,0,2.854,0c.434,0,.623.192.626.624C377.559,242.847,377.556,243.664,377.556,244.482Z" transform="translate(0 -103.787)" fill="#727272"/>
  </g>
</svg>
