<svg id="Group_5460" data-name="Group 5460" xmlns="http://www.w3.org/2000/svg" xmlns:xlink="http://www.w3.org/1999/xlink" width="13.994" height="14" viewBox="0 0 13.994 14">
  <defs>
    <clipPath id="clip-path">
      <rect id="Rectangle_2483" data-name="Rectangle 2483" width="13.994" height="14" fill="#727272"/>
    </clipPath>
  </defs>
  <g id="Group_5459" data-name="Group 5459" clip-path="url(#clip-path)">
    <path id="Path_2130" data-name="Path 2130" d="M6.986,13.1a7.964,7.964,0,0,1-2.944-.635.233.233,0,0,0-.241.02c-.716.428-1.434.852-2.151,1.278a1.263,1.263,0,0,1-.852.231.892.892,0,0,1-.745-1.194c.193-.583.437-1.149.662-1.72.115-.293.234-.584.36-.873a.222.222,0,0,0-.028-.239A6.134,6.134,0,0,1,.038,7.2a6,6,0,0,1,1-4.082A6.778,6.778,0,0,1,5.629.136,7.11,7.11,0,0,1,11.7,1.708a6.124,6.124,0,0,1,2.226,3.937,6.069,6.069,0,0,1-1.6,5.112,6.9,6.9,0,0,1-3.953,2.177c-.456.086-.923.109-1.385.161M3.26,7.468a.933.933,0,1,0-.926-.944.939.939,0,0,0,.926.944M10.724,5.6a.933.933,0,1,0,.94.931.94.94,0,0,0-.94-.931M7,7.468a.933.933,0,1,0-.936-.935A.94.94,0,0,0,7,7.468" transform="translate(0 0)" fill="#727272"/>
  </g>
</svg>
