<svg xmlns="http://www.w3.org/2000/svg" width="14.001" height="14.001" viewBox="0 0 14.001 14.001">
  <g id="Group_2357" data-name="Group 2357" transform="translate(-20 -129)">
    <g id="dashboard" transform="translate(20 129)">
      <path id="Path_213" data-name="Path 213" d="M5.4,0H1.021A1.022,1.022,0,0,0,0,1.021V3.646A1.022,1.022,0,0,0,1.021,4.667H5.4A1.022,1.022,0,0,0,6.417,3.646V1.021A1.022,1.022,0,0,0,5.4,0Zm0,0" fill="#727272"/>
      <path id="Path_214" data-name="Path 214" d="M5.4,213.332H1.021A1.022,1.022,0,0,0,0,214.353v6.126A1.022,1.022,0,0,0,1.021,221.5H5.4a1.022,1.022,0,0,0,1.021-1.021v-6.126A1.022,1.022,0,0,0,5.4,213.332Zm0,0" transform="translate(0 -207.498)" fill="#727272"/>
      <path id="Path_215" data-name="Path 215" d="M282.729,341.332h-4.375a1.022,1.022,0,0,0-1.021,1.021v2.625A1.022,1.022,0,0,0,278.353,346h4.375a1.022,1.022,0,0,0,1.021-1.021v-2.625A1.022,1.022,0,0,0,282.729,341.332Zm0,0" transform="translate(-269.748 -331.998)" fill="#727272"/>
      <path id="Path_216" data-name="Path 216" d="M282.729,0h-4.375a1.022,1.022,0,0,0-1.021,1.021V7.147a1.022,1.022,0,0,0,1.021,1.021h4.375a1.022,1.022,0,0,0,1.021-1.021V1.021A1.022,1.022,0,0,0,282.729,0Zm0,0" transform="translate(-269.748)" fill="#727272"/>
    </g>
  </g>
</svg>
