<svg id="Group_6117" data-name="Group 6117" xmlns="http://www.w3.org/2000/svg" xmlns:xlink="http://www.w3.org/1999/xlink" width="16.589" height="16" viewBox="0 0 16.589 16">
  <defs>
    <clipPath id="clip-path">
      <rect id="Rectangle_3006" data-name="Rectangle 3006" width="16.589" height="16" transform="translate(0 0)" fill="#727272"/>
    </clipPath>
  </defs>
  <g id="Group_6116" data-name="Group 6116" transform="translate(0 0)" clip-path="url(#clip-path)">
    <path id="Path_2700" data-name="Path 2700" d="M12.265,15.246a.634.634,0,0,1-.581.751c-.039,0-.078,0-.117,0Q6.156,16,.745,16a.655.655,0,0,1-.6-.264.915.915,0,0,1-.136-.465C0,13.039.005,10.807.005,8.575.005,5.963.011,3.352,0,.741A.7.7,0,0,1,.735,0Q4.393,0,8.05,0c.027,0,.055,0,.112.006V.2q0,1.8,0,3.591c0,.276.081.359.355.36q1.8,0,3.591,0c.117,0,.18.011.18.158-.005,1.637,0,3.273,0,4.91,0,.038,0,.077-.008.132-.161.007-.32.013-.48.022a6.117,6.117,0,0,0-3.041,1.076,8.639,8.639,0,0,0-1.479,1.217.839.839,0,0,0-.282.871.785.785,0,0,0,.166.3,7.384,7.384,0,0,0,3.7,2.267,9.94,9.94,0,0,0,1.238.143c.054.006.11,0,.172,0M6.134,7.08h3.892c.251,0,.391-.092.394-.259s-.125-.258-.39-.258H2.262a.753.753,0,0,0-.182.012.242.242,0,0,0-.2.264.239.239,0,0,0,.233.238,1.047,1.047,0,0,0,.134,0H6.134m.005,1.869H2.248a1.272,1.272,0,0,0-.134,0,.265.265,0,0,0-.241.254.24.24,0,0,0,.232.255,1.317,1.317,0,0,0,.167.007H10.02a.394.394,0,0,0,.2-.018.435.435,0,0,0,.186-.206.273.273,0,0,0-.093-.224.407.407,0,0,0-.246-.066c-1.308,0-2.616,0-3.925,0m-1.7-4.774q-1.128,0-2.255,0c-.2,0-.315.108-.313.27s.112.249.307.256c.033,0,.067,0,.1,0H6.608a.787.787,0,0,0,.182-.013.252.252,0,0,0,.188-.346.3.3,0,0,0-.315-.169c-.74,0-1.481,0-2.222,0m-.306,7.679c.64,0,1.28,0,1.92,0,.2,0,.32-.106.319-.263s-.124-.258-.322-.263H5.987q-1.862,0-3.723,0a.42.42,0,0,0-.226.032.355.355,0,0,0-.153.225.369.369,0,0,0,.14.235c.045.039.137.034.207.034.634,0,1.269,0,1.9,0M4.113,2.308c.668,0,1.335,0,2,0a.256.256,0,1,0,0-.509q-1.978,0-3.956,0a.313.313,0,0,0-.143.031.252.252,0,0,0,.128.479H4.113m0,11.924H6.053c.206,0,.323-.094.324-.254s-.114-.256-.32-.257c-.523,0-1.047,0-1.57,0-.768,0-1.537,0-2.305,0a.269.269,0,0,0-.3.167.248.248,0,0,0,.258.344c.657,0,1.314,0,1.971,0" transform="translate(0 0)" fill="#727272"/>
    <path id="Path_2701" data-name="Path 2701" d="M26.968,29.626A5.185,5.185,0,0,1,30,30.692c.481.347.924.748,1.378,1.132a.258.258,0,0,1,.016.43,12.594,12.594,0,0,1-1.71,1.381,5.188,5.188,0,0,1-2.6.843,5,5,0,0,1-2.538-.639A7.57,7.57,0,0,1,22.5,32.263a.267.267,0,0,1,0-.412,6.88,6.88,0,0,1,3.745-2.158c.239-.043.486-.045.729-.066m-1.5,2.4a1.488,1.488,0,0,0,1.445,1.525,1.5,1.5,0,0,0,.111-3,1.485,1.485,0,0,0-1.556,1.478" transform="translate(-14.914 -19.727)" fill="#727272"/>
    <path id="Path_2702" data-name="Path 2702" d="M26.025,4.122V.75L29.47,4.122Z" transform="translate(-17.33 -0.499)" fill="#727272"/>
    <path id="Path_2703" data-name="Path 2703" d="M35.068,34.908a.97.97,0,1,1-.971-1,.983.983,0,0,1,.971,1" transform="translate(-22.06 -22.58)" fill="#727272"/>
  </g>
</svg>
