<svg id="Component_7_125" data-name="Component 7 – 125" xmlns="http://www.w3.org/2000/svg" width="21.719" height="15" viewBox="0 0 21.719 15">
  <path id="Path_2136" data-name="Path 2136" d="M-33.485,394.121a10.7,10.7,0,0,1,6.173,2.425,14.735,14.735,0,0,1,3.98,4.764.574.574,0,0,1,0,.616,13.637,13.637,0,0,1-5.934,6.04,10.481,10.481,0,0,1-5.922,1.095,11.268,11.268,0,0,1-6.249-2.768,14.092,14.092,0,0,1-3.488-4.508.4.4,0,0,1-.006-.314A13.844,13.844,0,0,1-38.94,395.3,11.3,11.3,0,0,1-33.485,394.121Zm-.591,12.508a5,5,0,0,0,4.964-5.015,5.008,5.008,0,0,0-5-4.96,5.009,5.009,0,0,0-4.977,5.028A5.007,5.007,0,0,0-34.076,406.629Z" transform="translate(44.962 -394.121)" fill="#727272"/>
  <path id="Path_2137" data-name="Path 2137" d="M-21.9,411.652a2.983,2.983,0,0,1-2.99-3.017,2.982,2.982,0,0,1,3-2.961,2.984,2.984,0,0,1,2.98,3.027A2.988,2.988,0,0,1-21.9,411.652Z" transform="translate(32.766 -401.142)" fill="#727272"/>
</svg>
