<svg id="Group_5048" data-name="Group 5048" xmlns="http://www.w3.org/2000/svg" width="16" height="16" viewBox="0 0 16 16">
  <path id="Path_1249" data-name="Path 1249" d="M641.96,189.536l-1.794-.319-3.843-.683c-1.194-.212-2.388-.422-3.581-.639-.041-.007-.08-.069-.1-.115s0-.076,0-.115q0-6.131,0-12.261c0-.161.035-.225.207-.254,1.217-.207,2.432-.427,3.648-.643l3.859-.686,1.615-.285Zm-6.581-5.434c.331,0,.63,0,.93,0a.169.169,0,0,0,.193-.129c.213-.558.436-1.112.656-1.667.015-.039.036-.075.067-.139.252.661.493,1.285.727,1.911a.173.173,0,0,0,.174.136c.2.009.4.033.6.048.162.012.324.02.5.03-.033-.074-.056-.13-.081-.185-.4-.867-.808-1.736-1.217-2.6a.325.325,0,0,1,0-.308q.591-1.263,1.173-2.53c.022-.048.042-.1.069-.162-.313.016-.6.035-.888.042a.224.224,0,0,0-.229.165c-.226.553-.463,1.1-.7,1.652-.022.053-.048.1-.082.177-.19-.491-.369-.955-.548-1.419-.159-.414-.159-.414-.61-.414h-.644c.034.082.055.133.076.182.342.786.686,1.572,1.022,2.361a.345.345,0,0,1,0,.244c-.136.321-.288.635-.434.951Z" transform="translate(-632.629 -173.536)" fill="#616161"/>
  <path id="Path_1250" data-name="Path 1250" d="M702.584,197.772V196.7h2.351v-1.676h-2.349v-.5h2.348v-1.677h-2.346v-.5h2.348V190.67h-2.348v-.5h2.349v-1.676h-2.35V188h2.35v-1.673h-2.35v-.932h6.176c.341,0,.446.105.446.449q0,5.738,0,11.477c0,.352-.1.452-.458.452h-6.166Zm2.863-5.44H708.1v-1.653h-2.653Zm2.655-4.347v-1.652h-2.651v1.652Zm-2.65.515v1.653h2.65V188.5Zm2.652,4.361h-2.648v1.648H708.1Zm-2.654,3.822H708.1v-1.649H705.45Z" transform="translate(-693.207 -183.756)" fill="#616161"/>
</svg>
