<svg xmlns="http://www.w3.org/2000/svg" width="14" height="13.648" viewBox="0 0 14 13.648">
  <g id="Group_2395" data-name="Group 2395" transform="translate(-188.484 -330.704)">
    <path id="Path_353" data-name="Path 353" d="M229.433,351.4c-.733,0-1.409.009-2.085-.011a.353.353,0,0,1-.238-.245c-.03-.318-.008-.641-.015-.962a1.977,1.977,0,0,0-1.075-1.769c-.421-.241-.85-.468-1.308-.719a3.2,3.2,0,0,0,.718-2.285,4.093,4.093,0,0,0,1.409-.167,1.61,1.61,0,0,1,1.469.054,1.438,1.438,0,0,1,1.127,1.632q0,2.016,0,4.033Z" transform="translate(-26.95 -10.7)" fill="#727272"/>
    <path id="Path_354" data-name="Path 354" d="M188.485,351.38c0-.157,0-.274,0-.39q0-2.125,0-4.249a1.359,1.359,0,0,1,.954-1.394c.111-.043.228-.072.335-.122A1.335,1.335,0,0,1,191,345.2a5.281,5.281,0,0,0,1.484.2,3.138,3.138,0,0,0,.725,2.274c-.412.226-.791.445-1.18.645a2.043,2.043,0,0,0-1.213,1.976c0,.273.014.549-.008.821-.007.09-.1.246-.162.247C189.941,351.386,189.23,351.38,188.485,351.38Z" transform="translate(0 -10.683)" fill="#727272"/>
    <path id="Path_355" data-name="Path 355" d="M220.765,364.307h-3.631l1.62-6.777c.61.4,1.315.568,1.767,1.128a1.256,1.256,0,0,1,.262.718c.023,1.6.012,3.208.01,4.812A.6.6,0,0,1,220.765,364.307Z" transform="translate(-21.313 -19.956)" fill="#727272"/>
    <path id="Path_356" data-name="Path 356" d="M203.861,364.363h-3.643c-.007-.1-.021-.2-.021-.306,0-1.485,0-2.97,0-4.455a1.376,1.376,0,0,1,.762-1.309c.415-.225.831-.446,1.285-.689Z" transform="translate(-8.712 -20.011)" fill="#727272"/>
    <path id="Path_357" data-name="Path 357" d="M209.032,338.516a2.332,2.332,0,1,1-2.322,2.346A2.335,2.335,0,0,1,209.032,338.516Z" transform="translate(-13.558 -5.811)" fill="#727272"/>
    <path id="Path_358" data-name="Path 358" d="M225.317,330.7a1.663,1.663,0,1,1-.051,3.326,1.854,1.854,0,0,1-1.639-1.667A1.667,1.667,0,0,1,225.317,330.7Z" transform="translate(-26.142)" fill="#727272"/>
    <path id="Path_359" data-name="Path 359" d="M196.709,330.712a1.635,1.635,0,0,1,1.608,1.689,1.883,1.883,0,0,1-.24.643,2.1,2.1,0,0,1-.215.283,1.377,1.377,0,0,1-1.7.636,1.663,1.663,0,0,1,.547-3.25Z" transform="translate(-4.845 -0.006)" fill="#727272"/>
    <path id="Path_360" data-name="Path 360" d="M214.711,365.127c-.1-.65-.227-1.2-.261-1.764-.043-.709-.01-1.423-.01-2.135,0-.083-.029-.189.011-.245a3.19,3.19,0,0,1,.334-.348c.112.115.323.231.323.346a12.415,12.415,0,0,1-.265,3.989C214.836,364.99,214.815,365,214.711,365.127Z" transform="translate(-19.299 -22.266)" fill="#727272"/>
  </g>
</svg>
