<svg id="Group_17568" data-name="Group 17568" xmlns="http://www.w3.org/2000/svg" xmlns:xlink="http://www.w3.org/1999/xlink" width="12.556" height="15.697" viewBox="0 0 12.556 15.697">
  <defs>
    <clipPath id="clip-path">
      <rect id="Rectangle_10197" data-name="Rectangle 10197" width="12.556" height="15.697" fill="#727272"/>
    </clipPath>
  </defs>
  <g id="Group_17567" data-name="Group 17567" clip-path="url(#clip-path)">
    <path id="Path_7735" data-name="Path 7735" d="M4.184,2.089H5.232c0-.348,0-.689,0-1.03a1.045,1.045,0,0,1,2.09-.041c.006.353,0,.706,0,1.068H8.371c0-.058,0-.12,0-.183A8.512,8.512,0,0,1,8.41.813,1.015,1.015,0,0,1,9.516,0a1.055,1.055,0,0,1,.945,1.018c0,.348,0,.7,0,1.072.068,0,.131,0,.193,0a8.894,8.894,0,0,1,1.091.039.994.994,0,0,1,.808.992q0,5.77,0,11.539A1.039,1.039,0,0,1,11.52,15.7q-5.239,0-10.477,0A1.041,1.041,0,0,1,0,14.658Q0,8.9,0,3.135A1.044,1.044,0,0,1,1.042,2.1c.343,0,.685,0,1.051,0,0-.077,0-.146,0-.214A8.122,8.122,0,0,1,2.13.823,1.017,1.017,0,0,1,3.243.005a1.055,1.055,0,0,1,.94,1.024c0,.348,0,.7,0,1.06m2.1,3.144H2.642a.488.488,0,0,0-.52.336.517.517,0,0,0,.529.711H9.659c.1,0,.207,0,.31,0a.483.483,0,0,0,.461-.327.515.515,0,0,0-.5-.718q-1.821,0-3.643,0M6.268,9.42H9.911a.492.492,0,0,0,.521-.335.517.517,0,0,0-.527-.712H3.812c-.4,0-.8,0-1.193,0a.485.485,0,0,0-.495.326.518.518,0,0,0,.517.72q1.813,0,3.627,0m.01,3.139H9.905a.5.5,0,0,0,.526-.329.519.519,0,0,0-.536-.718H2.658a.772.772,0,0,0-.114,0,.478.478,0,0,0-.422.333.516.516,0,0,0,.514.71q1.821,0,3.643,0" transform="translate(0 0)" fill="#727272"/>
  </g>
</svg>
