<svg id="Group_17493" data-name="Group 17493" xmlns="http://www.w3.org/2000/svg" xmlns:xlink="http://www.w3.org/1999/xlink" width="11.203" height="18.301" viewBox="0 0 11.203 18.301">
  <defs>
    <clipPath id="clip-path">
      <rect id="Rectangle_9924" data-name="Rectangle 9924" width="11.203" height="18.301" fill="#727272"/>
    </clipPath>
  </defs>
  <g id="Group_17492" data-name="Group 17492" clip-path="url(#clip-path)">
    <path id="Path_7680" data-name="Path 7680" d="M9.932,2.755H.641V13.639H.869c.834,0,1.669,0,2.5,0,.174,0,.242.034.238.228-.013.655-.009,1.311,0,1.967,0,.158-.035.221-.207.219-.735-.008-1.47,0-2.205,0a1.133,1.133,0,0,1-1.2-1.2Q0,8.488,0,2.13A2.059,2.059,0,0,1,2.1.007q3.189-.016,6.378,0A2.007,2.007,0,0,1,10.5,1.652a.844.844,0,0,1,.019.137c.018.455.049.909.05,1.364q.006,4.768,0,9.537c0,.27,0,.27-.265.27-.379,0-.379,0-.379-.375V2.755" transform="translate(0.001 0)" fill="#727272"/>
    <path id="Path_7681" data-name="Path 7681" d="M43.3,98.641c.005-.079.012-.129.011-.179q-.036-1.936-.074-3.872a.761.761,0,0,1,.933-.819.732.732,0,0,1,.6.716c.026.913.047,1.827.07,2.74.007.288.08.359.371.353.556-.012,1.113-.009,1.668-.041a1.084,1.084,0,0,1,1.136,1.076c.029.873.043,1.747.051,2.621a.9.9,0,0,1-.9.916c-.88.026-1.761.038-2.641.054a.888.888,0,0,1-.752-.37q-1.193-1.537-2.391-3.07a.724.724,0,0,1,.068-1.045.765.765,0,0,1,1.072.08c.226.242.444.491.666.736.029.032.064.057.119.1" transform="translate(-36.857 -83.905)" fill="#727272"/>
    <path id="Path_7682" data-name="Path 7682" d="M16.07,57.984H12.455c-.317,0-.391-.076-.391-.4q0-1.38,0-2.761c0-.319.068-.392.379-.392h7.27c.308,0,.379.071.379.37q0,1.41,0,2.821c0,.281-.083.362-.367.362H16.07m-1.829-1.709c0,.47.14.694.494.8a.836.836,0,0,0,.972-.294,1.138,1.138,0,0,0,.128-.933.655.655,0,0,0-.581-.493.82.82,0,0,0-1.014.919m2.751.837c.488,0,.729-.227.841-.787a.773.773,0,0,0-.516-.957.816.816,0,0,0-1.063.564,1.445,1.445,0,0,0-.04.471.691.691,0,0,0,.778.709m-3.381-.926a.431.431,0,0,0-.224-.794,4.9,4.9,0,0,0-.575-.006c-.052,0-.141.085-.142.132-.011.47-.01.94,0,1.409,0,.049.074.137.114.137a4.777,4.777,0,0,0,.749-.044.45.45,0,0,0,.376-.43c.015-.2-.106-.315-.3-.4m5.026-.1-.047-.014c0-.164,0-.327,0-.491,0-.109.032-.228-.156-.225-.169,0-.174.092-.173.217,0,.437.008.874,0,1.311,0,.158.055.213.2.216.163,0,.176-.09.171-.218-.007-.191,0-.382,0-.574a3.328,3.328,0,0,1,.446.632c.105.195.244.183.434.111l-.564-.871.554-.752c-.218-.072-.367-.087-.482.1s-.253.368-.381.551" transform="translate(-10.797 -48.713)" fill="#727272"/>
    <path id="Path_7683" data-name="Path 7683" d="M36.9,66.416c0,.447-.253.67-.621.547-.013,0-.026-.005-.038-.01-.219-.094-.322-.5-.209-.819a.444.444,0,0,1,.581-.27c.2.06.286.234.287.552" transform="translate(-32.206 -58.922)" fill="#727272"/>
    <path id="Path_7684" data-name="Path 7684" d="M55.857,66.429c0,.485-.254.722-.6.589A.472.472,0,0,1,55,66.753a1.156,1.156,0,0,1-.016-.5.388.388,0,0,1,.455-.344.4.4,0,0,1,.413.376.919.919,0,0,1,.009.149" transform="translate(-49.186 -58.98)" fill="#727272"/>
    <path id="Path_7685" data-name="Path 7685" d="M20.877,72.545V72.03a3,3,0,0,1,.479.148c.033.016.031.184-.008.252-.107.189-.3.107-.472.115" transform="translate(-18.684 -64.463)" fill="#727272"/>
    <path id="Path_7686" data-name="Path 7686" d="M21.094,66.1v-.52a1.739,1.739,0,0,1,.383.132.241.241,0,0,1,.007.226,1.88,1.88,0,0,1-.39.163" transform="translate(-18.878 -58.686)" fill="#727272"/>
  </g>
</svg>
