<svg xmlns="http://www.w3.org/2000/svg" width="8" height="8" viewBox="0 0 8 8">
  <path id="Path_1225" data-name="Path 1225" d="M62.513,48.727c0-.065,0-.112,0-.159q0-1.244,0-2.487a.636.636,0,0,1,.5-.665.682.682,0,0,1,.886.668q-.007,3.318,0,6.637a.682.682,0,0,1-1.363.006q0-1.264,0-2.527v-.152c-.066.035-.116.059-.164.087l-5.448,3.128a.642.642,0,0,1-1.021-.568q0-1.523,0-3.045,0-1.762,0-3.524a1.084,1.084,0,0,1,.031-.3.631.631,0,0,1,.939-.348c.456.257.908.522,1.361.784l4.113,2.378C62.4,48.665,62.445,48.69,62.513,48.727Z" transform="translate(-55.899 -45.382)" fill="#333"/>
</svg>
