<svg version="1.2" xmlns="http://www.w3.org/2000/svg" viewBox="0 0 7813 7813" width="80" height="80">
	<title>vecteezy_power-icon-isolated-on-white-background-on-off-button_-eps</title>
	<style>
		.s0 { fill: #000000 } 
	</style>
	<path id="Layer 1" class="s0" d="m4414.3 649.4l3.1 2924.3c0.3 273.2-220.9 494.8-494 495.1q-0.3 0-0.6 0c-272.9 0-494.2-221.1-494.5-494l-3.2-2924.3c-0.2-273.2 221-494.9 494.1-495.1q0.3 0 0.5 0c272.9 0 494.3 221 494.6 494zm-1612.6 1052.8c161.7 219.4 115 528.3-104.3 690.1l-173.4 127.8-145.4 128.2-133.7 140.3-120.9 151.5-107.4 161.4-92.8 170.1-77.7 177.6-62 183.6-45.7 188.4-29.2 191.6-12.4 193.4 4.5 193.8 21.4 192.6 38 190.1 54.5 186 70.4 180.6 85.9 173.8 100.7 165.6 114.7 156.2 127.9 145.7 140.1 134 151.2 121.2 161.2 107.7 169.9 93.2 177.4 78.1 183.6 62.3 188.2 46.1 191.6 29.5 193.2 12.8 197.4-4.4 196-21.8 193.4-39 189.1-56.1 183.4-72.6 176.2-88.5 167.8-103.8 157.8-118.3 146.8-131.7 134.5-144.3 121.3-155.6 106.9-165.7 91.9-174.6 76-182 59.6-188 42.8-192.5 25.5-195.6 8-197.1-9.4-197-26.8-195.5-44-192.2-60.9-187.6-77.3-181.5-93-174-108.1-164.9-122.3-154.8-135.5-143.4-147.6-130.7-176.3-130.2c-219.3-162-265.7-471-103.8-690.2 96.8-131.1 246.1-200.4 397.4-200.4 101.8 0 204.6 31.4 292.8 96.6l193.9 143.2q17.6 13 34 27.5l180.4 159.8q16.4 14.6 31.5 30.5l165.6 175.1q15 16 28.6 33.1l149.4 189.2q13.6 17.2 25.6 35.5l132.1 201.6q12 18.4 22.3 37.7l113.7 212.5q10.3 19.3 18.9 39.5l94.4 221.8c5.7 13.4 10.9 27.1 15.4 40.9l74.4 229.3c4.5 13.9 8.4 28 11.6 42.2l53.8 235q4.9 21.3 7.9 43l32.8 238.8q3 21.7 4 43.6l11.5 240.8q1 21.8 0.1 43.7l-9.8 240.9c-0.6 14.5-1.9 29.1-3.8 43.6l-31.1 239q-2.9 21.7-7.6 43.1l-52.2 235.3q-4.8 21.4-11.4 42.3l-72.8 229.7q-6.6 20.9-15.1 41.1l-92.9 222.4q-8.5 20.2-18.7 39.6l-112.2 213.3c-6.8 13-14.2 25.6-22.1 37.8l-130.7 202.6q-11.9 18.4-25.3 35.6l-148.2 190.2q-13.4 17.3-28.4 33.3l-164.4 176.3q-14.9 16-31.2 30.6l-179.4 161q-16.3 14.7-33.8 27.8l-192.9 144.5q-17.5 13.1-36.2 24.7l-204.9 126.8q-18.7 11.6-38.2 21.4l-215.4 108.2q-19.6 9.8-40 17.9l-224.1 88.7q-20.4 8-41.4 14.2l-231.1 68.5q-21 6.3-42.4 10.6l-236.3 47.8q-21.5 4.3-43.2 6.7l-239.6 26.7c-14.5 1.6-29.1 2.5-43.7 2.9l-241 5.3q-5.4 0.1-10.8 0.1-16.3 0-32.5-1.1l-236.4-15.6q-21.5-1.4-42.7-4.7l-234.1-36.1q-21.3-3.3-42.2-8.4l-230.1-56.3q-20.9-5.2-41.2-12.1l-224.3-76.1q-20.4-7-40.1-15.6l-216.8-95.4q-19.7-8.7-38.6-19l-207.7-114q-18.8-10.3-36.7-22.3l-197-131.5q-17.9-12-34.7-25.4l-184.8-148.2q-16.8-13.5-32.3-28.4l-171.2-163.7q-15.5-14.9-29.7-31l-156.3-178c-9.5-10.8-18.5-22-27-33.5l-140.1-191q-12.8-17.3-24-35.7l-123-202.4q-11.2-18.4-20.7-37.7l-105-212.3q-9.5-19.3-17.3-39.4l-86.1-220.7q-7.8-20-13.9-40.7l-66.5-227.3q-6-20.6-10.3-41.7l-46.5-232.3q-4.2-21.1-6.5-42.5l-26.2-235.4q-2.3-21.4-2.8-42.9l-5.5-236.8q-0.5-21.5 0.8-43l15.2-236.4q1.3-21.5 4.6-42.8l35.6-234.1q3.2-21.3 8.3-42.2l55.9-230.2q5.1-20.9 12-41.3l75.7-224.4q6.9-20.4 15.5-40.2l95-216.9q8.6-19.8 18.9-38.7l113.5-207.9q10.3-18.9 22.2-36.8l131.2-197.2q11.9-17.9 25.3-34.7l147.8-185.1q13.5-16.8 28.3-32.4l163.4-171.5q14.8-15.6 31-29.8l177.7-156.7q16.1-14.2 33.4-27l190.7-140.5c88.1-65 190.8-96.4 292.5-96.4 151.4 0 300.8 69.5 397.6 200.7z"/>
</svg>