<svg id="Group_5438" data-name="Group 5438" xmlns="http://www.w3.org/2000/svg" xmlns:xlink="http://www.w3.org/1999/xlink" width="14.001" height="15.965" viewBox="0 0 14.001 15.965">
  <defs>
    <clipPath id="clip-path">
      <rect id="Rectangle_2468" data-name="Rectangle 2468" width="14.001" height="15.965" fill="#727272"/>
    </clipPath>
  </defs>
  <g id="Group_5437" data-name="Group 5437" clip-path="url(#clip-path)">
    <path id="Path_2107" data-name="Path 2107" d="M8.593,2.823c0,.394.006.767,0,1.141a.783.783,0,0,1-.471.747.756.756,0,0,1-.825-.1.736.736,0,0,1-.3-.6Q6.989,2.394,7,.776a.767.767,0,0,1,.757-.77q1.637-.012,3.273,0A.776.776,0,0,1,11.781.8a.783.783,0,0,1-.764.785c-.434.009-.869,0-1.356,0,.076.082.118.13.163.175,1.018,1.019,2.033,2.041,3.056,3.055A3.591,3.591,0,0,1,11.2,10.929a3.513,3.513,0,0,1-3.345-.981c-.92-.906-1.824-1.827-2.741-2.735A2.042,2.042,0,0,0,2.081,9.94c.057.066.115.132.176.193q1.289,1.29,2.583,2.576A.344.344,0,0,0,5.1,12.8a1.6,1.6,0,1,1-1.274,1.322.262.262,0,0,0-.091-.255Q2.412,12.548,1.1,11.23A3.636,3.636,0,0,1,3.179,5.018,3.567,3.567,0,0,1,6.24,6.081c.912.9,1.815,1.818,2.727,2.723a1.992,1.992,0,0,0,2.933-2.7C10.836,5,9.737,3.934,8.652,2.849a.287.287,0,0,0-.059-.026" transform="translate(0 0)" fill="#727272"/>
  </g>
</svg>
