<svg id="Group_5050" data-name="Group 5050" xmlns="http://www.w3.org/2000/svg" width="16.002" height="16" viewBox="0 0 16.002 16">
  <path id="Path_1251" data-name="Path 1251" d="M796.964,323.231q0-3.094,0-6.187a1.772,1.772,0,0,1,1.38-1.757,1.81,1.81,0,0,1,.417-.046q6.219,0,12.438,0A1.778,1.778,0,0,1,812.965,317q0,6.242,0,12.483a1.778,1.778,0,0,1-1.765,1.758q-6.235,0-12.469,0a1.778,1.778,0,0,1-1.766-1.773Q796.963,326.348,796.964,323.231Zm12.339,2.684c.176-.018.353-.023.526-.055a.89.89,0,0,0,.731-.886.778.778,0,0,0-.5-.675,2.67,2.67,0,0,0-1.15-.243c-.4,0-.809.036-1.214.05a.978.978,0,0,1-.472-.023,3.91,3.91,0,0,1-.843-.608,5.8,5.8,0,0,1-1.283-2.1.466.466,0,0,1-.007-.269,8.774,8.774,0,0,0,.333-1.677,2.438,2.438,0,0,0-.137-1.089.835.835,0,0,0-.839-.525.713.713,0,0,0-.738.515,3.342,3.342,0,0,0-.246,1.695c.068.444.206.876.308,1.315a.469.469,0,0,1,.005.222,16.333,16.333,0,0,1-1.764,3.957.585.585,0,0,1-.184.178c-.458.295-.938.56-1.376.882a2.84,2.84,0,0,0-.936,1.17.829.829,0,0,0,.036.693c.039.089.17.138.26.2.034.024.075.039.106.065a.684.684,0,0,0,.65.1,2.115,2.115,0,0,0,1.007-.68,10.5,10.5,0,0,0,1.38-1.941.4.4,0,0,1,.163-.178,4.687,4.687,0,0,1,.741-.231c.815-.157,1.635-.291,2.451-.444a1.38,1.38,0,0,1,.824.118A6.288,6.288,0,0,0,809.3,325.915Z" transform="translate(-796.964 -315.238)" fill="#616161"/>
  <path id="Path_1252" data-name="Path 1252" d="M831.2,353.935a13.991,13.991,0,0,0-2.726.74,2.346,2.346,0,0,1-.3.067c.262-.529.521-1.024.755-1.53s.443-1.023.666-1.541A8.185,8.185,0,0,0,831.2,353.935Z" transform="translate(-822.117 -344.596)" fill="#616161"/>
  <path id="Path_1253" data-name="Path 1253" d="M814.666,372.615c-.362.683-.7,1.387-1.53,1.632A3.865,3.865,0,0,1,814.666,372.615Z" transform="translate(-809.995 -361.472)" fill="#616161"/>
  <path id="Path_1254" data-name="Path 1254" d="M855.734,364.166a3.4,3.4,0,0,1-1.938-.481A2.26,2.26,0,0,1,855.734,364.166Z" transform="translate(-842.759 -354.231)" fill="#616161"/>
  <path id="Path_1255" data-name="Path 1255" d="M834.383,332.409c-.033-.217-.079-.433-.1-.651a2.857,2.857,0,0,1,.08-1.1.451.451,0,0,1,.154-.206,3.588,3.588,0,0,1-.089,1.949Z" transform="translate(-827.024 -327.501)" fill="#616161"/>
</svg>
