<svg xmlns="http://www.w3.org/2000/svg" xmlns:xlink="http://www.w3.org/1999/xlink" width="12.129" height="18.95" viewBox="0 0 12.129 18.95">
  <defs>
    <clipPath id="clip-path">
      <rect id="Rectangle_9925" data-name="Rectangle 9925" width="12.129" height="18.95" transform="translate(0 0)" fill="#727272"/>
    </clipPath>
  </defs>
  <g id="Group_17495" data-name="Group 17495" transform="translate(0 0)">
    <g id="Group_17494" data-name="Group 17494" transform="translate(0 0)" clip-path="url(#clip-path)">
      <path id="Path_7687" data-name="Path 7687" d="M22.768,14.154a5.811,5.811,0,0,0,3.809-1.444,5.826,5.826,0,0,0,3.82,1.445c0,.076,0,.15,0,.225-.007,1.494-.026,2.988-.015,4.482a2.4,2.4,0,0,1-.661,1.659,8.79,8.79,0,0,1-2.042,1.605c-.323.2-.656.382-.988.564a.235.235,0,0,1-.187.022,12.709,12.709,0,0,1-2.951-2.021,2.531,2.531,0,0,1-.8-1.931c.029-1.481.009-2.962.01-4.443,0-.05.005-.1.009-.162m2.692,4.639c-.224-.2-.436-.376-.639-.564a.406.406,0,0,0-.584-.047.385.385,0,0,0,0,.582q.426.461.867.908a.388.388,0,0,0,.61,0c.182-.182.358-.371.535-.557.872-.912,1.747-1.823,2.613-2.741a.664.664,0,0,0,.169-.331.337.337,0,0,0-.227-.366.392.392,0,0,0-.471.112l-1.269,1.326-1.606,1.68" transform="translate(-18.269 -10.207)" fill="#727272"/>
      <path id="Path_7688" data-name="Path 7688" d="M3.744,17.831c-.015.224-.038.42-.039.617,0,1.488.012,2.977-.013,4.464a3.1,3.1,0,0,0,.873,2.239c.222.24.479.449.71.682a.254.254,0,0,1,.064.206,9.2,9.2,0,0,0-.315,2.191q-.112,2.17-.231,4.34a.674.674,0,0,1-1.348-.035q0-2.764,0-5.528a.828.828,0,0,0-.043-.3A.36.36,0,0,0,3,26.48a.38.38,0,0,0-.331.328,1.931,1.931,0,0,0-.009.251q0,2.7,0,5.392a.688.688,0,0,1-.618.772.669.669,0,0,1-.757-.644c-.067-1.531-.127-3.063-.2-4.594a7.41,7.41,0,0,0-.259-2.138c-.1-.278-.2-.555-.329-.822a5.069,5.069,0,0,1-.49-2.2c.006-1.005,0-2.01,0-3.015A1.42,1.42,0,0,1,.744,18.5c.321-.191.635-.393.964-.568a1.2,1.2,0,0,1,.49-.143c.424-.019.85-.009,1.275,0a1.662,1.662,0,0,1,.27.044" transform="translate(0 -14.278)" fill="#727272"/>
      <path id="Path_7689" data-name="Path 7689" d="M10.154,1.53A1.53,1.53,0,1,1,8.614,0a1.535,1.535,0,0,1,1.54,1.53" transform="translate(-5.696 0)" fill="#727272"/>
    </g>
  </g>
</svg>
