<svg id="Group_5462" data-name="Group 5462" xmlns="http://www.w3.org/2000/svg" xmlns:xlink="http://www.w3.org/1999/xlink" width="13.302" height="13.49" viewBox="0 0 13.302 13.49">
  <defs>
    <clipPath id="clip-path">
      <rect id="Rectangle_2484" data-name="Rectangle 2484" width="13.302" height="13.49" fill="#727272"/>
    </clipPath>
  </defs>
  <g id="Group_5461" data-name="Group 5461" clip-path="url(#clip-path)">
    <path id="Path_2131" data-name="Path 2131" d="M41.642,3.52a5.057,5.057,0,0,1-1.668,3.65,2.439,2.439,0,0,1-3.311.111,4.819,4.819,0,0,1-1.611-4.86,3.337,3.337,0,0,1,6.528.615c.022.171.043.343.061.485" transform="translate(-31.595 -0.001)" fill="#727272"/>
    <path id="Path_2132" data-name="Path 2132" d="M5.424,83.938c-1.219-.281-2.45-.52-3.65-.865A4.652,4.652,0,0,1,.4,82.282a1.066,1.066,0,0,1-.372-1.133,2.753,2.753,0,0,1,1.657-2.232c.824-.365,1.65-.729,2.534-1.119l1.346,5.984-.141.157" transform="translate(0 -70.448)" fill="#727272"/>
    <path id="Path_2133" data-name="Path 2133" d="M83.372,78.629a9.244,9.244,0,0,1,3.564,1.743A1.914,1.914,0,0,1,86.6,83.49a10.766,10.766,0,0,1-4.559,1.068l1.334-5.928" transform="translate(-74.289 -71.202)" fill="#727272"/>
    <path id="Path_2134" data-name="Path 2134" d="M61.839,90.022h1.754a4.214,4.214,0,0,1-.9.893c-.306.154-.379.03-.851-.893" transform="translate(-55.998 -81.518)" fill="#727272"/>
  </g>
</svg>
