<svg id="Group_17769" data-name="Group 17769" xmlns="http://www.w3.org/2000/svg" xmlns:xlink="http://www.w3.org/1999/xlink" width="17.051" height="17.022" viewBox="0 0 17.051 17.022">
  <defs>
    <clipPath id="clip-path">
      <rect id="Rectangle_10524" data-name="Rectangle 10524" width="17.051" height="17.022" transform="translate(0 0)" fill="#727272"/>
    </clipPath>
  </defs>
  <g id="Group_17768" data-name="Group 17768" transform="translate(0 0)" clip-path="url(#clip-path)">
    <path id="Path_7739" data-name="Path 7739" d="M7.86,0V4.731a3.816,3.816,0,1,0,2.864,6.9l3.3,3.351a8.379,8.379,0,0,1-8.777,1.38A8.522,8.522,0,0,1,7.86,0" transform="translate(0 0)" fill="#727272"/>
    <path id="Path_7740" data-name="Path 7740" d="M72.6,7.826H67.873a3.888,3.888,0,0,0-3.062-3.055V.044A8.428,8.428,0,0,1,72.6,7.826" transform="translate(-55.559 -0.038)" fill="#727272"/>
    <path id="Path_7741" data-name="Path 7741" d="M87.651,64.281a8.332,8.332,0,0,1-1.943,4.777l-3.351-3.366.588-1.411Z" transform="translate(-70.6 -55.105)" fill="#727272"/>
  </g>
</svg>
