<svg xmlns="http://www.w3.org/2000/svg" width="5.852" height="10.868" viewBox="0 0 5.852 10.868">
  <path id="Shape_3" data-name="Shape 3" d="M281.707,166.868a.761.761,0,0,1-.6-1.144,1.669,1.669,0,0,1,.239-.294q1.781-1.887,3.564-3.771c.214-.226.215-.228.007-.448l-3.468-3.666c-.076-.08-.154-.159-.226-.243a.766.766,0,0,1-.017-1.067.666.666,0,0,1,1.025.015c.382.388.752.789,1.126,1.184q1.571,1.661,3.142,3.322a.825.825,0,0,1,0,1.348q-2.091,2.213-4.182,4.426A.92.92,0,0,1,281.707,166.868Z" transform="translate(-281 -156)" fill="#727272"/>
</svg>
