<svg xmlns="http://www.w3.org/2000/svg" xmlns:xlink="http://www.w3.org/1999/xlink" width="13.51" height="13.496" viewBox="0 0 13.51 13.496">
  <defs>
    <clipPath id="clip-path">
      <rect id="Rectangle_9926" data-name="Rectangle 9926" width="13.51" height="13.496" transform="translate(0 0)" fill="#727272"/>
    </clipPath>
  </defs>
  <g id="Group_17497" data-name="Group 17497" transform="translate(0 0)">
    <g id="Group_17496" data-name="Group 17496" transform="translate(0 0)" clip-path="url(#clip-path)">
      <path id="Path_7690" data-name="Path 7690" d="M10.636,9.427c.037.039.069.074.1.108q1.276,1.276,2.554,2.551a.748.748,0,0,1,.21.488.85.85,0,0,1-.409.811.592.592,0,0,1-.264.1.932.932,0,0,1-.872-.328c-.79-.824-1.609-1.62-2.415-2.43-.075-.076-.123-.1-.224-.025a5.742,5.742,0,0,1-3.685,1.093,5.861,5.861,0,0,1-5.5-4.661,5.728,5.728,0,0,1,1.8-5.6A5.518,5.518,0,0,1,5.17.045,5.76,5.76,0,0,1,10.26,1.919a5.625,5.625,0,0,1,1.5,3.239,5.8,5.8,0,0,1-1.1,4.221c-.008.011-.013.023-.027.049M1.687,5.888A4.218,4.218,0,1,0,5.916,1.679,4.221,4.221,0,0,0,1.687,5.888" transform="translate(0 0)" fill="#727272"/>
    </g>
  </g>
</svg>
