<svg xmlns="http://www.w3.org/2000/svg" width="16.763" height="16.785" viewBox="0 0 16.763 16.785">
  <g id="Group_5429" data-name="Group 5429" transform="translate(-100.678 -311.41)">
    <path id="Path_2102" data-name="Path 2102" d="M174.063,391.848c-.059-.494-.1-.955-.178-1.41a.523.523,0,0,0-.241-.3c-.147-.09-.348-.1-.482-.2-.38-.288-.664-.156-.963.135-.25.242-.538.444-.8.658l-1.181-1.191c.243-.3.493-.643.771-.956.188-.212.15-.381.1-.654-.178-.934-.838-1.009-1.568-1-.351,0-.49-.117-.454-.48a7.281,7.281,0,0,0,.005-.975c-.007-.205.066-.284.276-.3.386-.027.769-.085,1.154-.13.05-.006.132.007.144-.017.182-.36.371-.718.519-1.092.035-.089-.05-.254-.123-.351-.269-.358-.557-.7-.838-1.051l1.207-1.167c.3.238.635.486.946.767.214.194.405.267.655.08a.578.578,0,0,1,.274-.117c.6-.055.655-.476.685-.948.059-.93.069-.93,1.01-.931.732,0,.8,0,.81.72a1.143,1.143,0,0,0,.934,1.269c.317.09.508.122.752-.1.292-.27.617-.5.935-.759l1.156,1.21c-.269.337-.553.712-.858,1.069a.3.3,0,0,0-.04.426.894.894,0,0,1,.172.371c.067.577.447.686.937.691.3,0,.594.061.915.1v1.672c-.423.042-.843.091-1.263.122-.261.019-.455.088-.493.39a.715.715,0,0,1-.129.349c-.324.4-.169.7.141,1.02a9.786,9.786,0,0,1,.621.767l-1.189,1.184c-.336-.269-.71-.555-1.067-.861a.3.3,0,0,0-.424-.039,1.183,1.183,0,0,1-.441.2c-.472.076-.623.348-.612.8a7.9,7.9,0,0,1-.1,1.026Zm.814-3.846a1.929,1.929,0,0,0,1.968-1.937A1.955,1.955,0,1,0,174.877,388Z" transform="translate(-63.247 -63.652)" fill="#727272"/>
    <path id="Path_2103" data-name="Path 2103" d="M100.678,316.594v-1.281c.162-.023.309-.049.457-.065.842-.09.847-.087,1.131-.878a.415.415,0,0,0-.067-.325c-.2-.282-.43-.546-.651-.822a1.322,1.322,0,0,1,.1-.138c.252-.26.506-.517.789-.8.268.21.532.394.767.609.183.169.327.143.56.081a.919.919,0,0,0,.738-1.09,2.4,2.4,0,0,1,.061-.449c.09-.008.164-.02.237-.021.336,0,.673,0,1.044,0,.046.36.071.707.145,1.044a.666.666,0,0,0,.263.33.907.907,0,0,0,1.344-.211,2.586,2.586,0,0,1,.294-.243l.929.937c-.155.2-.345.454-.557.695a.5.5,0,0,0-.081.529.9.9,0,0,0,1.1.762,2.106,2.106,0,0,1,.436.063v1.293c-.562-.012-1.154.392-1.615-.211l-2.432,2.457c.551.444.206,1.039.178,1.625H104.56c-.04-.348-.085-.679-.112-1.012-.016-.2-.123-.265-.29-.366a.941.941,0,0,0-1.356.245,2.238,2.238,0,0,1-.347.268l-.858-.992c.166-.208.4-.47.592-.757a.586.586,0,0,0,.048-.388c-.11-.66-.548-.868-1.166-.826A1.887,1.887,0,0,1,100.678,316.594Zm4.52.885a1.528,1.528,0,0,0,1.529-1.56,1.544,1.544,0,0,0-1.559-1.5,1.57,1.57,0,0,0-1.5,1.528A1.543,1.543,0,0,0,105.2,317.479Z" fill="#727272"/>
  </g>
</svg>
