<svg id="Group_5444" data-name="Group 5444" xmlns="http://www.w3.org/2000/svg" xmlns:xlink="http://www.w3.org/1999/xlink" width="14.99" height="15.001" viewBox="0 0 14.99 15.001">
  <defs>
    <clipPath id="clip-path">
      <rect id="Rectangle_2471" data-name="Rectangle 2471" width="14.99" height="15.001" fill="#727272"/>
    </clipPath>
  </defs>
  <g id="Group_5443" data-name="Group 5443" clip-path="url(#clip-path)">
    <path id="Path_2110" data-name="Path 2110" d="M13.4,11.842a.828.828,0,0,1-.208.54c-.266.279-.531.561-.819.815a.843.843,0,0,1-.97.109,4.006,4.006,0,0,1-.406-.23.9.9,0,0,0-.8-.083c-.2.07-.4.15-.6.231a1.062,1.062,0,0,0-.672.821,2.05,2.05,0,0,1-.118.39.825.825,0,0,1-.719.545,7.733,7.733,0,0,1-1.2,0,.875.875,0,0,1-.77-.685c-.043-.134-.075-.272-.111-.408a.848.848,0,0,0-.461-.574,7.693,7.693,0,0,0-.807-.332.978.978,0,0,0-.847.149,2.456,2.456,0,0,1-.582.255.738.738,0,0,1-.716-.2c-.255-.234-.5-.479-.739-.73a.893.893,0,0,1-.14-1.116c.061-.116.13-.229.2-.341A.908.908,0,0,0,2,10.183c-.072-.2-.157-.4-.237-.6A1.029,1.029,0,0,0,.95,8.928a1.846,1.846,0,0,1-.492-.171A.834.834,0,0,1,0,7.992C0,7.685,0,7.377,0,7.07a.921.921,0,0,1,.713-.948c.14-.041.282-.076.423-.113a.694.694,0,0,0,.48-.355,8.3,8.3,0,0,0,.421-1.02.935.935,0,0,0-.179-.745,2.657,2.657,0,0,1-.248-.57A.725.725,0,0,1,1.8,2.614,11.3,11.3,0,0,1,2.616,1.8a.842.842,0,0,1,.97-.11,4.292,4.292,0,0,1,.419.237.887.887,0,0,0,.773.082c.211-.071.418-.158.625-.242A1.061,1.061,0,0,0,6.063.95,1.979,1.979,0,0,1,6.207.509.859.859,0,0,1,7.016,0c.3-.006.6,0,.908,0a.921.921,0,0,1,.945.7c.045.149.076.3.123.45a.762.762,0,0,0,.388.492,8.373,8.373,0,0,0,.983.4.873.873,0,0,0,.694-.151,2.983,2.983,0,0,1,.606-.274.75.75,0,0,1,.741.2q.376.348.728.721a.894.894,0,0,1,.147,1.1c-.064.125-.141.245-.213.366a.9.9,0,0,0-.077.787c.08.224.176.443.268.662a.978.978,0,0,0,.77.6,2.531,2.531,0,0,1,.269.065.921.921,0,0,1,.693.935q0,.432,0,.864a.921.921,0,0,1-.7.945c-.149.045-.3.078-.451.12a.674.674,0,0,0-.457.339,8.541,8.541,0,0,0-.43,1.032.873.873,0,0,0,.182.743,1.37,1.37,0,0,1,.268.738M7.494,5.154A2.343,2.343,0,1,0,9.839,7.495,2.345,2.345,0,0,0,7.494,5.154" transform="translate(0 0)" fill="#727272"/>
  </g>
</svg>
