<svg id="Group_5458" data-name="Group 5458" xmlns="http://www.w3.org/2000/svg" xmlns:xlink="http://www.w3.org/1999/xlink" width="14" height="11.206" viewBox="0 0 14 11.206">
  <defs>
    <clipPath id="clip-path">
      <rect id="Rectangle_2482" data-name="Rectangle 2482" width="14" height="11.206" fill="#727272"/>
    </clipPath>
  </defs>
  <g id="Group_5457" data-name="Group 5457" clip-path="url(#clip-path)">
    <path id="Path_2129" data-name="Path 2129" d="M12.6,1.4H1.407v.7H13.216A.708.708,0,0,1,14,2.888q0,3.424,0,6.848A1.4,1.4,0,0,1,12.53,11.2H1.47A1.405,1.405,0,0,1,0,9.737Q0,5.6,0,1.467A1.407,1.407,0,0,1,1.459,0Q6.647,0,11.836,0A.714.714,0,0,1,12.6.767c0,.2,0,.408,0,.634M11.556,5.6a1.051,1.051,0,0,0-.01,2.1,1.051,1.051,0,1,0,.01-2.1" transform="translate(0 0)" fill="#727272"/>
  </g>
</svg>
