<svg xmlns="http://www.w3.org/2000/svg" width="21.25" height="22.75" viewBox="0 0 21.25 22.75">
  <g id="Group_5436" data-name="Group 5436" transform="translate(-1713.25 -25)">
    <g id="Group_5143" data-name="Group 5143">
      <path id="Icon" d="M335-45.5a1.752,1.752,0,0,0,.4-.04,2.029,2.029,0,0,0,1.44-1.18,2.008,2.008,0,0,0,.15-.78h-4a2.015,2.015,0,0,0,2.01,2Zm6-11c0-3.07-1.64-5.64-4.5-6.32v-.68A1.5,1.5,0,0,0,335-65a1.5,1.5,0,0,0-1.5,1.5v.68c-2.87.68-4.5,3.24-4.5,6.32v5l-2,2v1h16v-1l-2-2v-5Z" transform="translate(1387 92.5)" fill="none" stroke="#d8d8d8" stroke-width="1.5" fill-rule="evenodd"/>
    </g>
  </g>
</svg>
