<svg xmlns="http://www.w3.org/2000/svg" width="13" height="14" viewBox="0 0 13 14">
  <path id="Shape_6" data-name="Shape 6" d="M1614.22,37.819a.832.832,0,0,1,.116.088q1.213,1.3,2.423,2.61a.887.887,0,0,1-.327,1.439.731.731,0,0,1-.822-.231q-1.2-1.3-2.4-2.591a1.473,1.473,0,0,1-.091-.12,5.31,5.31,0,0,1-4.867,1.032,5.534,5.534,0,0,1-3.261-2.48,6.454,6.454,0,0,1,.858-7.952,5.376,5.376,0,0,1,7.333-.323,5.98,5.98,0,0,1,1.765,2.489,6.51,6.51,0,0,1-.722,6.04Zm-4.533-8.069a4.386,4.386,0,1,0,4.065,4.375A4.229,4.229,0,0,0,1609.687,29.75Z" transform="translate(-1604 -27.999)" fill="#bdbdbd"/>
</svg>
